<svg width="47" height="70" viewBox="0 0 47 70" fill="none" xmlns="http://www.w3.org/2000/svg">
<path d="M23.9361 43.0345C22.8833 43.0353 21.8497 42.7633 20.9439 42.2471C20.0381 41.7309 19.2934 40.9895 18.788 40.1008L0.721228 8.35299C0.351228 7.70319 0.117871 6.98963 0.034482 6.25305C-0.048907 5.51646 0.0193097 4.77128 0.235229 4.06007C0.451148 3.34885 0.810544 2.68553 1.29289 2.10798C1.77524 1.53042 2.3711 1.04995 3.04643 0.694002C3.72172 0.33797 4.46328 0.113422 5.22877 0.0331811C5.99425 -0.0470599 6.76866 0.0185774 7.50778 0.226345C8.2469 0.434113 8.93624 0.779944 9.53646 1.24408C10.1367 1.70823 10.636 2.28159 11.0059 2.93143L29.0727 34.682C29.4425 35.3317 29.6757 36.0452 29.7588 36.7817C29.842 37.5182 29.7735 38.2632 29.5573 38.9743C29.3411 39.6853 28.9814 40.3483 28.4988 40.9255C28.0162 41.5027 27.4201 41.9828 26.7446 42.3382C25.8842 42.794 24.9183 43.0334 23.9361 43.0345Z" fill="url(#paint0_linear_429_3813)" fill-opacity="0.2"/>
<path d="M40.8132 -5.72205e-05C39.8189 -0.000846863 38.8428 0.271141 37.9873 0.787346C37.1317 1.30355 36.4284 2.04494 35.9512 2.93364L18.8881 34.6814C18.5386 35.3312 18.3182 36.0448 18.2395 36.7814C18.1607 37.518 18.2251 38.2631 18.4291 38.9744C18.633 39.6856 18.9724 40.3489 19.428 40.9264C19.8835 41.504 20.4463 41.9845 21.0841 42.3404C21.7219 42.6965 22.4222 42.921 23.1452 43.0012C23.8681 43.0815 24.5995 43.0158 25.2976 42.8081C25.9956 42.6003 26.6467 42.2545 27.2135 41.7903C27.7804 41.3262 28.252 40.7528 28.6014 40.103L45.6645 8.35245C46.0137 7.7027 46.2339 6.98919 46.3125 6.2527C46.391 5.51622 46.3263 4.77118 46.1221 4.06017C45.9179 3.34916 45.5782 2.68611 45.1224 2.10891C44.6666 1.5317 44.1037 1.05166 43.4657 0.696213C42.6531 0.240463 41.7408 0.000984192 40.8132 -5.72205e-05Z" fill="url(#paint1_linear_429_3813)" fill-opacity="0.2"/>
<path d="M7.068 66.3884C9.21 66.3884 10.794 65.2904 10.794 63.4004C10.794 61.8884 9.768 61.2224 8.166 60.5744L7.266 60.2144C6.852 60.0524 6.654 59.9624 6.654 59.7284C6.654 59.4764 6.888 59.3864 7.284 59.3864C7.788 59.3864 8.256 59.5484 8.724 59.8184C8.94 59.9444 9.192 60.0524 9.444 60.0524C10.128 60.0524 10.686 59.4944 10.686 58.7924C10.686 58.3784 10.47 57.9824 10.092 57.7304C9.318 57.2084 8.256 56.9384 7.266 56.9384C5.196 56.9384 3.774 57.9824 3.774 59.7824C3.774 61.2764 4.746 62.0144 6.384 62.6804L7.392 63.0944C7.734 63.2384 7.914 63.3284 7.914 63.5444C7.914 63.8504 7.554 63.9404 7.122 63.9404C6.474 63.9404 5.844 63.6704 5.376 63.3464C5.052 63.1124 4.8 63.0404 4.548 63.0404C3.846 63.0404 3.288 63.5984 3.288 64.2824C3.288 64.6604 3.45 65.0024 3.756 65.2544C4.602 65.9744 5.772 66.3884 7.068 66.3884ZM17.653 56.9564C16.735 56.9564 15.925 57.2624 15.313 57.8024V54.0224C15.313 53.1224 14.647 52.4564 13.765 52.4564C12.883 52.4564 12.217 53.1224 12.217 54.0224V64.8224C12.217 65.7224 12.883 66.3884 13.765 66.3884C14.647 66.3884 15.313 65.7224 15.313 64.8224V61.0784C15.313 60.2864 15.835 59.7464 16.609 59.7464C17.383 59.7464 17.923 60.2864 17.923 61.0784V64.8224C17.923 65.7224 18.589 66.3884 19.471 66.3884C20.353 66.3884 21.019 65.7224 21.019 64.8224V60.6284C21.019 58.4324 19.669 56.9564 17.653 56.9564ZM27.4032 56.9564C24.6492 56.9564 22.5072 59.0264 22.5072 61.6724C22.5072 64.3184 24.6492 66.3884 27.4032 66.3884C30.1572 66.3884 32.3172 64.3004 32.3172 61.6724C32.3172 59.0444 30.1572 56.9564 27.4032 56.9564ZM27.4212 59.8004C28.4112 59.8004 29.1492 60.5924 29.1492 61.6724C29.1492 62.7524 28.4292 63.5444 27.4212 63.5444C26.3772 63.5444 25.6752 62.7884 25.6752 61.6724C25.6752 60.5564 26.3952 59.8004 27.4212 59.8004ZM39.2908 56.9564C38.2288 56.9564 37.3828 57.2984 36.8248 57.9644C36.6268 57.3704 36.0868 56.9564 35.4028 56.9564C34.5388 56.9564 33.8908 57.6044 33.8908 58.4684V68.0624C33.8908 68.9624 34.5568 69.6284 35.4388 69.6284C36.3208 69.6284 36.9868 68.9624 36.9868 68.0624V65.5604C37.5448 66.1004 38.3188 66.3884 39.2908 66.3884C41.8108 66.3884 43.6108 64.4084 43.6108 61.6544C43.6108 58.9004 41.8108 56.9564 39.2908 56.9564ZM38.6788 63.5804C37.6528 63.5804 36.9328 62.7884 36.9328 61.6544C36.9328 60.5384 37.6348 59.7644 38.6788 59.7644C39.7228 59.7644 40.4428 60.5384 40.4428 61.6724C40.4428 62.7884 39.7048 63.5804 38.6788 63.5804Z" fill="#535353" fill-opacity="0.2"/>
<defs>
<linearGradient id="paint0_linear_429_3813" x1="-0.00235877" y1="21.5161" x2="29.7934" y2="21.5161" gradientUnits="userSpaceOnUse">
<stop/>
<stop offset="1" stop-opacity="0"/>
</linearGradient>
<linearGradient id="paint1_linear_429_3813" x1="18.2047" y1="21.5183" x2="46.3451" y2="21.5183" gradientUnits="userSpaceOnUse">
<stop/>
<stop offset="1" stop-opacity="0"/>
</linearGradient>
</defs>
</svg>
